# xmcd
#
# Track frame offsets: 
#        150
#        27341
#        62955
#        69281
#        105475
#        134153
#        157982
#        188637
#
# Disc length: 3043 seconds
#
# Revision: 0
# Processed by: cddbd v1.5.2PL0 Copyright (c) Steve Scherf et al.
# Submitted via: ExactAudioCopy v1.4
#
DISCID=6a0be108
DTITLE=Little Bushman - Te Oranga
DYEAR=2011
DGENRE=
TTITLE0=Te Oranga
TTITLE1=Gone
TTITLE2=Gone pt II
TTITLE3=Big Man
TTITLE4=Dream Of The Astronaut Girl
TTITLE5=Dream Of The Astronaut Girl pt II
TTITLE6=Backbone
TTITLE7=One Hand
EXTD=
EXTT0=
EXTT1=
EXTT2=
EXTT3=
EXTT4=
EXTT5=
EXTT6=
EXTT7=
PLAYORDER=
